HIERARCHY
ROOT Pelvis
{
	OFFSET 0.000000 0.000000 0.000000
	CHANNELS 6 Xposition Yposition Zposition Xrotation Yrotation Zrotation
	JOINT LeftUpLeg_virtual
	{
		OFFSET 0.000000 0.000000 0.000000
		CHANNELS 3 Xrotation Yrotation Zrotation
		JOINT LeftUpLeg
		{
			OFFSET 18.735201 -5.666702 -4.541200
			CHANNELS 3 Xrotation Yrotation Zrotation
			JOINT LeftLeg
			{
				OFFSET -0.021200 -31.938179 0.493100
				CHANNELS 3 Xrotation Yrotation Zrotation
				JOINT LeftFoot
				{
					OFFSET 0.021200 -31.938179 -4.336299
					CHANNELS 3 Xrotation Yrotation Zrotation
					JOINT LeftToeBase
					{
						OFFSET 0.943001 -26.722000 15.023500
						CHANNELS 3 Xrotation Yrotation Zrotation
						End Site
						{
							OFFSET 0 0 0
						}
					}
				}
			}
		}
	}
	JOINT RightUpLeg_virtual
	{
		OFFSET 0.000000 0.000000 0.000000
		CHANNELS 3 Xrotation Yrotation Zrotation
		JOINT RightUpLeg
		{
			OFFSET -18.735201 -5.666702 -4.541200
			CHANNELS 3 Xrotation Yrotation Zrotation
			JOINT RightLeg
			{
				OFFSET 0.018946 -31.938133 0.493100
				CHANNELS 3 Xrotation Yrotation Zrotation
				JOINT RightFoot
				{
					OFFSET -0.018946 -31.938126 -4.336299
					CHANNELS 3 Xrotation Yrotation Zrotation
					JOINT RightToeBase
					{
						OFFSET -0.943001 -26.722004 15.023500
						CHANNELS 3 Xrotation Yrotation Zrotation
						End Site
						{
							OFFSET 0 0 0
						}
					}
				}
			}
		}
	}
	JOINT Hips_virtual
	{
		OFFSET 0.000000 0.000000 0.000000
		CHANNELS 3 Xrotation Yrotation Zrotation
		JOINT Hips
		{
			OFFSET -0.000000 -0.000000 -0.000000
			CHANNELS 3 Xrotation Yrotation Zrotation
			JOINT Spine
			{
				OFFSET 0.000000 10.199997 -0.299500
				CHANNELS 3 Xrotation Yrotation Zrotation
				JOINT Spine1
				{
					OFFSET 0.000000 11.900002 -1.516600
					CHANNELS 3 Xrotation Yrotation Zrotation
					JOINT Spine2
					{
						OFFSET 0.000000 13.600006 -2.842500
						CHANNELS 3 Xrotation Yrotation Zrotation
						JOINT Neck_virtual
						{
							OFFSET 0.000000 0.000000 0.000000
							CHANNELS 3 Xrotation Yrotation Zrotation
							JOINT Neck
							{
								OFFSET 0.000000 9.624100 -2.890100
								CHANNELS 3 Xrotation Yrotation Zrotation
								JOINT Head
								{
									OFFSET 0.000000 14.068802 -1.351900
									CHANNELS 3 Xrotation Yrotation Zrotation
									End Site
									{
										OFFSET 0 0 0
									}
								}
							}
						}
						JOINT LeftShoulder_virtual
						{
							OFFSET 0.000000 0.000000 0.000000
							CHANNELS 3 Xrotation Yrotation Zrotation
							JOINT LeftShoulder
							{
								OFFSET 15.263000 10.923401 -0.547700
								CHANNELS 3 Xrotation Yrotation Zrotation
								JOINT LeftArm
								{
									OFFSET 25.438599 -2.830597 -13.032500
									CHANNELS 3 Xrotation Yrotation Zrotation
									JOINT LeftForeArm
									{
										OFFSET 29.960503 0.000000 0.000000
										CHANNELS 3 Xrotation Yrotation Zrotation
										JOINT LeftHand
										{
											OFFSET 27.849251 0.000000 0.000000
											CHANNELS 3 Xrotation Yrotation Zrotation
											End Site
											{
												OFFSET 0 0 0
											}
										}
									}
								}
							}
						}
						JOINT RightShoulder_virtual
						{
							OFFSET 0.000000 0.000000 0.000000
							CHANNELS 3 Xrotation Yrotation Zrotation
							JOINT RightShoulder
							{
								OFFSET -15.263000 10.923401 -0.547700
								CHANNELS 3 Xrotation Yrotation Zrotation
								JOINT RightArm
								{
									OFFSET -25.438599 -2.830597 -13.032500
									CHANNELS 3 Xrotation Yrotation Zrotation
									JOINT RightForeArm
									{
										OFFSET -29.960503 0.000000 0.000000
										CHANNELS 3 Xrotation Yrotation Zrotation
										JOINT RightHand
										{
											OFFSET -27.849251 0.000000 0.000000
											CHANNELS 3 Xrotation Yrotation Zrotation
											End Site
											{
												OFFSET 0 0 0
											}
										}
									}
								}
							}
						}
					}
				}
			}
		}
	}
}
MOTION
Frames: 8
Frame Time: 0.03333333
-0.337411 86.918968 3.393392 0.000000 0.000000 0.000000 -0.016925 -6.862771 -2.724635 -42.878060 8.776794 15.114842 45.380518 -0.640870 1.854662 -6.183219 -1.814121 -3.103973 0.000000 0.000000 0.000000 -1.490876 -27.187821 0.388010 -34.588515 -10.900933 -16.752142 40.858192 0.028569 -4.984672 -11.999093 -0.875027 3.376521 0.000000 0.000000 0.000000 0.498379 -3.022735 -0.817094 -2.884547 -11.120643 -2.943154 5.811695 2.476969 -0.587737 2.289278 1.879746 -0.423891 0.000000 0.000000 0.000000 3.194889 2.198097 -0.075526 0.084036 0.473240 1.254971 0.000000 0.000000 0.000000 2.432359 2.129481 1.245266 2.252980 -7.101753 12.686912 -37.329545 -32.439362 -43.222137 -0.618639 -74.945665 1.946431 0.000000 0.000000 0.000000 1.597785 0.457765 -1.125968 1.448540 8.211057 -1.657755 -32.931054 49.579640 35.415576 -41.095035 86.663400 39.739454 0.000000 0.000000 0.000000 
-0.325997 86.920273 3.431486 0.000000 0.000000 0.000000 -0.035400 -6.852302 -2.758794 -42.883677 8.787855 15.078662 45.479556 -0.661526 1.922688 -6.117195 -1.869061 -3.029731 0.000000 0.000000 0.000000 -1.537972 -27.353644 0.390111 -34.628605 -10.944944 -16.734448 40.810455 0.027765 -4.989303 -12.021761 -0.871886 3.350183 0.000000 0.000000 0.000000 0.517748 -2.937247 -0.812992 -3.009725 -11.204265 -2.889518 5.839233 2.479206 -0.619125 2.329208 1.895183 -0.419556 0.000000 0.000000 0.000000 3.202913 2.228934 -0.064112 0.113940 0.464773 1.257003 0.000000 0.000000 0.000000 2.422151 2.170659 1.238426 2.299143 -7.187337 12.822734 -37.531247 -32.672835 -43.304427 -0.650936 -75.069953 1.745954 0.000000 0.000000 0.000000 1.596634 0.430895 -1.080884 1.511321 8.082439 -1.623129 -33.118699 49.927740 35.269738 -39.833571 86.547301 38.493368 0.000000 0.000000 0.000000 
-0.306186 86.923561 3.497905 0.000000 0.000000 0.000000 -0.074044 -6.826149 -2.828452 -42.899322 8.811239 15.006050 45.658609 -0.693085 2.046796 -6.001064 -1.962637 -2.890963 0.000000 0.000000 0.000000 -1.620640 -27.640929 0.395605 -34.698263 -11.022196 -16.699783 40.730433 0.025671 -4.992129 -12.059814 -0.869273 3.311121 0.000000 0.000000 0.000000 0.564365 -2.792620 -0.791286 -3.253028 -11.349094 -2.760111 5.875888 2.492666 -0.675419 2.399943 1.924249 -0.413556 0.000000 0.000000 0.000000 3.210455 2.289371 -0.044119 0.169456 0.447399 1.260063 0.000000 0.000000 0.000000 2.396808 2.245622 1.220855 2.380607 -7.367166 13.062903 -37.923071 -33.086123 -43.441174 -0.744024 -75.302822 1.348105 0.000000 0.000000 0.000000 1.594811 0.383390 -0.999342 1.628389 7.854935 -1.575936 -33.501654 50.579607 35.017137 -37.386348 86.300007 36.078903 0.000000 0.000000 0.000000 
-0.283603 86.929657 3.573705 0.000000 0.000000 0.000000 -0.134336 -6.774562 -2.933202 -42.931123 8.848589 14.899216 45.886126 -0.721230 2.206755 -5.860938 -2.069458 -2.705544 0.000000 0.000000 0.000000 -1.720610 -27.980399 0.405594 -34.780474 -11.115516 -16.650579 40.644577 0.021645 -4.983869 -12.100315 -0.872301 3.279824 0.000000 0.000000 0.000000 0.652184 -2.627257 -0.732096 -3.596838 -11.521575 -2.529797 5.898271 2.529924 -0.746602 2.487481 1.963403 -0.409938 0.000000 0.000000 0.000000 3.206238 2.376215 -0.020277 0.243132 0.420536 1.262459 0.000000 0.000000 0.000000 2.350863 2.342327 1.187572 2.480072 -7.650621 13.356578 -38.479537 -33.590474 -43.587108 -0.943209 -75.613534 0.759985 0.000000 0.000000 0.000000 1.593674 0.325122 -0.896079 1.785489 7.575783 -1.551904 -34.076275 51.458891 34.718087 -34.011299 85.897402 32.755808 0.000000 0.000000 0.000000 
-0.265404 86.938759 3.634651 0.000000 0.000000 0.000000 -0.214896 -6.685160 -3.067180 -42.982852 8.900677 14.765892 46.128034 -0.734014 2.379720 -5.724107 -2.165208 -2.496359 0.000000 0.000000 0.000000 -1.819948 -28.304601 0.419032 -34.857785 -11.207462 -16.591868 40.582187 0.015276 -4.957345 -12.128234 -0.884638 3.274105 0.000000 0.000000 0.000000 0.797294 -2.471599 -0.619562 -4.011102 -11.690501 -2.195146 5.895487 2.599599 -0.823329 2.578989 2.007764 -0.412318 0.000000 0.000000 0.000000 3.183622 2.483589 0.002253 0.326214 0.384010 1.262312 0.000000 0.000000 0.000000 2.284019 2.448101 1.136347 2.579933 -8.036050 13.651266 -39.159879 -34.090051 -43.696579 -1.291826 -75.958998 -0.005069 0.000000 0.000000 0.000000 1.595638 0.265887 -0.787935 1.966736 7.292224 -1.587758 -34.803304 52.475715 34.426940 -30.177364 85.319472 28.992189 0.000000 0.000000 0.000000 
-0.258245 86.949577 3.659989 0.000000 0.000000 0.000000 -0.309958 -6.546528 -3.217835 -43.052834 8.966495 14.619844 46.356849 -0.726444 2.545595 -5.610947 -2.234307 -2.286916 0.000000 0.000000 0.000000 -1.906947 -28.567679 0.431801 -34.917805 -11.285044 -16.531008 40.565627 0.006426 -4.911013 -12.131585 -0.906895 3.301723 0.000000 0.000000 0.000000 1.011583 -2.333498 -0.450349 -4.458088 -11.833777 -1.787848 5.878633 2.701187 -0.900265 2.667361 2.051967 -0.422513 0.000000 0.000000 0.000000 3.144784 2.603058 0.019247 0.410734 0.338696 1.258096 0.000000 0.000000 0.000000 2.204203 2.553044 1.070177 2.666879 -8.502031 13.907462 -39.911398 -34.507290 -43.740880 -1.811580 -76.291560 -0.922992 0.000000 0.000000 0.000000 1.603488 0.212403 -0.689959 2.158439 7.037548 -1.709867 -35.596098 53.543243 34.168523 -26.400715 84.567215 25.299905 0.000000 0.000000 0.000000 
-0.266031 86.958717 3.643201 0.000000 0.000000 0.000000 -0.409934 -6.352394 -3.368466 -43.133348 9.043153 14.477841 46.556485 -0.700639 2.690329 -5.530767 -2.271969 -2.096844 0.000000 0.000000 0.000000 -1.977765 -28.750407 0.438149 -34.955272 -11.341444 -16.475627 40.603258 -0.005071 -4.849535 -12.105750 -0.936939 3.358323 0.000000 0.000000 0.000000 1.295679 -2.197530 -0.236376 -4.902213 -11.935807 -1.368078 5.876535 2.824928 -0.977098 2.752226 2.091134 -0.440306 0.000000 0.000000 0.000000 3.099615 2.724886 0.028209 0.491141 0.286861 1.249090 0.000000 0.000000 0.000000 2.125926 2.651486 0.996977 2.733494 -9.007781 14.105002 -40.677707 -34.797533 -43.718637 -2.489135 -76.568675 -1.953691 0.000000 0.000000 0.000000 1.619334 0.167197 -0.612926 2.351227 6.825911 -1.928436 -36.333116 54.588648 33.930085 -23.035180 83.671347 22.026858 0.000000 0.000000 0.000000 
-0.288466 86.960938 3.598362 0.000000 0.000000 0.000000 -0.503611 -6.104901 -3.503339 -43.212493 9.126665 14.354455 46.722455 -0.662650 2.806725 -5.482293 -2.281413 -1.938661 0.000000 0.000000 0.000000 -2.033125 -28.853195 0.434287 -34.969851 -11.375349 -16.430551 40.688349 -0.019842 -4.781772 -12.054591 -0.971506 3.430399 0.000000 0.000000 0.000000 1.634809 -2.037733 -0.001168 -5.319954 -11.982158 -1.002652 5.921314 2.956161 -1.057089 2.837629 2.121470 -0.464194 0.000000 0.000000 0.000000 3.061066 2.839944 0.028475 0.565046 0.231903 1.235696 0.000000 0.000000 0.000000 2.064846 2.741546 0.926772 2.777286 -9.503670 14.241358 -41.408828 -34.951656 -43.654638 -3.274147 -76.762802 -3.038592 0.000000 0.000000 0.000000 1.643985 0.129314 -0.562727 2.540235 6.655536 -2.237865 -36.890186 55.559566 33.671125 -20.204475 82.686564 19.291050 0.000000 0.000000 0.000000 
